<svg xmlns="http://www.w3.org/2000/svg" viewBox="0 0 512 512">
  <defs>
    <linearGradient id="grad" x1="0%" y1="0%" x2="100%" y2="100%">
      <stop offset="0%" style="stop-color:#4cc2ff;stop-opacity:1" />
      <stop offset="100%" style="stop-color:#0078d4;stop-opacity:1" />
    </linearGradient>
  </defs>
  <!-- Background circle -->
  <circle cx="256" cy="256" r="240" fill="#1e1e1e" stroke="url(#grad)" stroke-width="8"/>
  <!-- Ruler -->
  <rect x="140" y="100" width="50" height="280" rx="6" fill="#e0e0e0"/>
  <rect x="145" y="120" width="15" height="4" fill="#666"/>
  <rect x="145" y="140" width="25" height="4" fill="#666"/>
  <rect x="145" y="160" width="15" height="4" fill="#666"/>
  <rect x="145" y="180" width="25" height="4" fill="#666"/>
  <rect x="145" y="200" width="15" height="4" fill="#666"/>
  <rect x="145" y="220" width="25" height="4" fill="#666"/>
  <rect x="145" y="240" width="15" height="4" fill="#666"/>
  <rect x="145" y="260" width="25" height="4" fill="#666"/>
  <rect x="145" y="280" width="15" height="4" fill="#666"/>
  <rect x="145" y="300" width="25" height="4" fill="#666"/>
  <rect x="145" y="320" width="15" height="4" fill="#666"/>
  <rect x="145" y="340" width="25" height="4" fill="#666"/>
  <circle cx="165" cy="125" r="8" fill="#333"/>
  <!-- Pencil -->
  <g transform="rotate(-45 280 280)">
    <rect x="250" y="120" width="60" height="240" rx="6" fill="#b0b0b0"/>
    <rect x="250" y="120" width="60" height="40" rx="6" fill="#808080"/>
    <polygon points="250,360 280,400 310,360" fill="#e0c080"/>
    <polygon points="265,370 280,400 295,370" fill="#4a4a4a"/>
    <rect x="250" y="300" width="60" height="20" fill="#667"/>
  </g>
</svg>
